<svg width="137" height="78" viewBox="0 0 137 78" fill="none" xmlns="http://www.w3.org/2000/svg">
<circle cx="2" cy="2" r="2" transform="translate(0 17)" fill="#005CC5"/>
<circle cx="2" cy="2" r="2" transform="translate(20 17)" fill="#005CC5"/>
<circle cx="2" cy="2" r="2" transform="translate(40 17)" fill="#005CC5"/>
<circle cx="2" cy="2" r="2" transform="translate(60 17)" fill="#005CC5"/>
<circle cx="2" cy="2" r="2" transform="translate(80 17)" fill="#005CC5"/>
<circle cx="2" cy="2" r="2" transform="translate(10 29)" fill="#005CC5"/>
<circle cx="2" cy="2" r="2" transform="translate(30 29)" fill="#005CC5"/>
<circle cx="2" cy="2" r="2" transform="translate(50 29)" fill="#005CC5"/>
<circle cx="2" cy="2" r="2" transform="translate(70 29)" fill="#005CC5"/>
<circle cx="2" cy="2" r="2" transform="translate(90 29)" fill="#005CC5"/>
<circle cx="2" cy="2" r="2" transform="translate(0 41)" fill="#005CC5"/>
<circle cx="2" cy="2" r="2" transform="translate(20 41)" fill="#005CC5"/>
<circle cx="2" cy="2" r="2" transform="translate(40 41)" fill="#005CC5"/>
<circle cx="2" cy="2" r="2" transform="translate(60 41)" fill="#005CC5"/>
<circle cx="2" cy="2" r="2" transform="translate(80 41)" fill="#005CC5"/>
<circle cx="2" cy="2" r="2" transform="translate(10 53)" fill="#005CC5"/>
<circle cx="2" cy="2" r="2" transform="translate(30 53)" fill="#005CC5"/>
<circle cx="2" cy="2" r="2" transform="translate(50 53)" fill="#005CC5"/>
<circle cx="2" cy="2" r="2" transform="translate(70 53)" fill="#005CC5"/>
<circle cx="2" cy="2" r="2" transform="translate(90 53)" fill="#005CC5"/>
<circle cx="2" cy="2" r="2" transform="translate(0 65)" fill="#005CC5"/>
<circle cx="2" cy="2" r="2" transform="translate(20 65)" fill="#005CC5"/>
<circle cx="2" cy="2" r="2" transform="translate(40 65)" fill="#005CC5"/>
<circle cx="2" cy="2" r="2" transform="translate(60 65)" fill="#005CC5"/>
<circle cx="2" cy="2" r="2" transform="translate(80 65)" fill="#005CC5"/>
<path d="M0 0C4 0 4 8 8 8C12 8 12 0 16 0C20 0 20 8 24 8C28 8 28 0 32 0C36 0 36 8 40 8" transform="translate(96 33) rotate(-180)" stroke="#79B8FF" stroke-linecap="round" stroke-linejoin="round"/>
<path d="M0 0C8 0 8 16 16 16C24 16 24 0 32 0C40 0 40 16 48 16C56 16 56 0 64 0C72 0 72 16 80 16" transform="translate(136 57) rotate(-180)" stroke="#79B8FF" stroke-linecap="round" stroke-linejoin="round"/>
<rect width="32" height="24" transform="translate(24 1)" stroke="#79B8FF" stroke-linejoin="round"/>
<rect width="32" height="16" transform="translate(24 61)" stroke="#79B8FF" stroke-linejoin="round"/>
<rect width="32" height="16" transform="translate(24 25)" stroke="#79B8FF" stroke-linejoin="round"/>
<rect width="32" height="16" transform="translate(24 41)" stroke="#79B8FF" stroke-linejoin="round"/>
</svg>
