<svg width="148" height="122" viewBox="0 0 148 122" fill="none" xmlns="http://www.w3.org/2000/svg">
<circle cx="10" cy="10" r="9.5" transform="translate(115 15)" stroke="#79B8FF"/>
<circle cx="6" cy="6" r="5.5" transform="translate(136)" stroke="#79B8FF"/>
<circle cx="2" cy="2" r="2" transform="translate(50 46)" fill="#005CC5"/>
<circle cx="2" cy="2" r="2" transform="translate(70 46)" fill="#005CC5"/>
<circle cx="2" cy="2" r="2" transform="translate(90 46)" fill="#005CC5"/>
<circle cx="2" cy="2" r="2" transform="translate(110 46)" fill="#005CC5"/>
<circle cx="2" cy="2" r="2" transform="translate(130 46)" fill="#005CC5"/>
<circle cx="2" cy="2" r="2" transform="translate(60 58)" fill="#005CC5"/>
<circle cx="2" cy="2" r="2" transform="translate(80 58)" fill="#005CC5"/>
<circle cx="2" cy="2" r="2" transform="translate(100 58)" fill="#005CC5"/>
<circle cx="2" cy="2" r="2" transform="translate(120 58)" fill="#005CC5"/>
<circle cx="2" cy="2" r="2" transform="translate(140 58)" fill="#005CC5"/>
<circle cx="2" cy="2" r="2" transform="translate(50 70)" fill="#005CC5"/>
<circle cx="2" cy="2" r="2" transform="translate(70 70)" fill="#005CC5"/>
<circle cx="2" cy="2" r="2" transform="translate(90 70)" fill="#005CC5"/>
<circle cx="2" cy="2" r="2" transform="translate(110 70)" fill="#005CC5"/>
<circle cx="2" cy="2" r="2" transform="translate(130 70)" fill="#005CC5"/>
<circle cx="2" cy="2" r="2" transform="translate(60 82)" fill="#005CC5"/>
<circle cx="2" cy="2" r="2" transform="translate(80 82)" fill="#005CC5"/>
<circle cx="2" cy="2" r="2" transform="translate(100 82)" fill="#005CC5"/>
<circle cx="2" cy="2" r="2" transform="translate(120 82)" fill="#005CC5"/>
<circle cx="2" cy="2" r="2" transform="translate(140 82)" fill="#005CC5"/>
<circle cx="2" cy="2" r="2" transform="translate(50 94)" fill="#005CC5"/>
<circle cx="2" cy="2" r="2" transform="translate(70 94)" fill="#005CC5"/>
<circle cx="2" cy="2" r="2" transform="translate(90 94)" fill="#005CC5"/>
<circle cx="2" cy="2" r="2" transform="translate(110 94)" fill="#005CC5"/>
<circle cx="2" cy="2" r="2" transform="translate(130 94)" fill="#005CC5"/>
<circle cx="2" cy="2" r="2" transform="translate(60 106)" fill="#005CC5"/>
<circle cx="2" cy="2" r="2" transform="translate(80 106)" fill="#005CC5"/>
<circle cx="2" cy="2" r="2" transform="translate(100 106)" fill="#005CC5"/>
<circle cx="2" cy="2" r="2" transform="translate(120 106)" fill="#005CC5"/>
<circle cx="2" cy="2" r="2" transform="translate(140 106)" fill="#005CC5"/>
<circle cx="2" cy="2" r="2" transform="translate(50 118)" fill="#005CC5"/>
<circle cx="2" cy="2" r="2" transform="translate(70 118)" fill="#005CC5"/>
<circle cx="2" cy="2" r="2" transform="translate(90 118)" fill="#005CC5"/>
<circle cx="2" cy="2" r="2" transform="translate(110 118)" fill="#005CC5"/>
<circle cx="2" cy="2" r="2" transform="translate(130 118)" fill="#005CC5"/>
<path d="M0 0C8 0 8 16 16 16C24 16 24 0 32 0C40 0 40 16 48 16C56 16 56 0 64 0C72 0 72 16 80 16" transform="translate(112 48) rotate(-180)" stroke="#79B8FF" stroke-linecap="round" stroke-linejoin="round"/>
<path d="M0 0C8 0 8 16 16 16C24 16 24 0 32 0C40 0 40 16 48 16C56 16 56 0 64 0C72 0 72 16 80 16" transform="translate(81 66) rotate(-180)" stroke="#79B8FF" stroke-linecap="round" stroke-linejoin="round"/>
</svg>
